<svg width="41" height="41" viewBox="0 0 41 41" fill="none" xmlns="http://www.w3.org/2000/svg">
  <path d="M3.38086 4.22656H13.5252L20.2881 10.9894H37.1953V36.3503H3.38086V4.22656Z" stroke="#BDBDBD" stroke-width="1.5" />
  <path d="M27.3702 16.9071C27.7787 16.8975 28.185 16.9697 28.5652 17.1194C28.9454 17.269 29.2918 17.4932 29.5841 17.7787C29.8764 18.0643 30.1087 18.4053 30.2672 18.7819C30.4258 19.1585 30.5075 19.5629 30.5075 19.9715C30.5075 20.3801 30.4258 20.7846 30.2672 21.1612C30.1087 21.5377 29.8764 21.8788 29.5841 22.1643C29.2918 22.4498 28.9454 22.674 28.5652 22.8237C28.185 22.9734 27.7787 23.0456 27.3702 23.036C26.57 23.0172 25.8088 22.686 25.2494 22.1134C24.6901 21.5408 24.377 20.772 24.377 19.9715C24.377 19.171 24.6901 18.4023 25.2494 17.8297C25.8088 17.257 26.57 16.9259 27.3702 16.9071Z" stroke="#BDBDBD" stroke-width="1.5" />
  <path d="M13.373 21.9785L3.38086 29.6375V36.1383H32.2077L13.373 21.9785Z" stroke="#BDBDBD" stroke-width="1.5" />
</svg>